<?xml version="1.0" standalone="no"?>
<!DOCTYPE svg PUBLIC "-//W3C//DTD SVG 20010904//EN"
 "http://www.w3.org/TR/2001/REC-SVG-20010904/DTD/svg10.dtd">
<svg version="1.0" xmlns="http://www.w3.org/2000/svg"
 width="260.000000pt" height="260.000000pt" viewBox="0 0 260.000000 260.000000"
 preserveAspectRatio="xMidYMid meet">
<metadata>
Created by potrace 1.14, written by Peter Selinger 2001-2017
</metadata>
<g transform="translate(0.000000,260.000000) scale(0.100000,-0.100000)"
fill="#000000" stroke="none">
<path d="M1110 2575 c-491 -78 -887 -408 -1042 -868 -50 -150 -67 -270 -63
-437 2 -80 6 -156 9 -170 3 -14 11 -49 17 -78 31 -153 120 -347 221 -483 151
-204 388 -378 625 -458 238 -80 505 -90 768 -28 115 28 305 117 416 197 269
193 450 464 519 778 25 113 27 401 5 520 -65 341 -291 663 -595 849 -141 86
-322 154 -475 178 -84 13 -321 13 -405 0z m356 -200 c349 -49 664 -275 823
-590 237 -471 103 -1031 -324 -1354 -127 -96 -343 -186 -492 -205 -50 -6 -52
-6 -48 16 3 12 0 25 -5 28 -13 8 -18 33 -26 125 -3 38 -8 79 -10 90 -9 46 -5
234 7 280 17 71 54 144 97 188 l37 39 92 -5 c50 -3 97 -8 105 -13 11 -6 11 -5
0 8 -7 9 -43 29 -80 44 -37 15 -70 30 -75 34 -7 6 75 111 149 190 18 19 31 36
30 38 -7 6 -213 -142 -261 -187 -27 -27 -69 -55 -92 -64 -24 -9 -44 -16 -44
-14 -3 4 -6 42 -14 137 -4 52 -7 97 -8 100 -1 3 7 28 16 56 10 28 19 60 21 71
3 11 9 37 14 57 6 20 7 36 3 36 -10 0 -51 -75 -51 -94 0 -34 -20 -14 -21 22 0
20 -3 49 -5 65 -2 15 -6 39 -8 55 -2 15 -5 41 -5 57 -2 44 -18 12 -26 -51 -4
-27 -8 -60 -10 -74 -2 -14 -7 -65 -10 -115 -4 -49 -10 -95 -14 -102 -4 -9 -32
1 -96 33 l-90 46 78 -80 c42 -44 84 -97 93 -117 15 -37 14 -101 -2 -192 l-6
-32 -42 28 c-22 15 -63 40 -91 54 -65 35 -279 127 -283 122 -13 -13 150 -170
213 -206 28 -15 65 -43 82 -61 87 -90 121 -253 88 -418 -3 -14 -9 -49 -15 -79
-11 -58 -15 -66 -33 -66 -17 0 -15 -29 3 -38 36 -18 -93 7 -172 33 -339 113
-604 381 -707 713 -10 35 -22 79 -25 98 -3 19 -8 45 -11 59 -16 74 -12 228 10
368 28 183 142 396 292 548 248 250 599 368 949 319z"/>
<path d="M775 2210 c-3 -5 1 -10 9 -10 9 0 16 5 16 10 0 6 -4 10 -9 10 -6 0
-13 -4 -16 -10z"/>
<path d="M1397 2126 c-38 -61 -35 -98 16 -153 25 -28 41 -30 28 -4 -14 25 -21
110 -10 117 5 3 9 -3 10 -13 0 -10 2 -25 4 -33 2 -8 5 -26 8 -40 12 -57 17
-62 39 -34 12 14 23 44 25 67 5 46 -13 79 -65 116 l-28 19 -27 -42z"/>
<path d="M1164 2093 c-50 -62 -59 -81 -68 -134 -9 -60 13 -118 65 -171 26 -26
52 -48 57 -48 13 0 18 54 17 180 0 55 3 100 7 100 13 0 31 -108 31 -185 l-1
-80 24 30 c62 75 80 151 55 228 -11 34 -110 137 -131 137 -5 0 -30 -26 -56
-57z"/>
<path d="M880 1981 c-46 -14 -90 -41 -90 -55 0 -25 64 -110 98 -129 18 -11 47
-19 65 -19 35 0 117 29 117 42 0 8 -124 66 -164 76 -14 3 -24 10 -21 14 7 11
88 -6 137 -30 23 -11 43 -18 45 -17 7 8 -52 86 -76 99 -35 21 -80 28 -111 19z"/>
<path d="M1564 1966 c-33 -18 -98 -95 -89 -104 2 -2 22 6 44 17 58 28 141 46
141 30 0 -5 -6 -9 -12 -9 -7 0 -51 -18 -97 -39 l-83 -39 43 -22 c73 -38 160
-20 197 41 61 98 61 95 -7 125 -53 24 -95 24 -137 0z"/>
<path d="M697 1783 c-2 -4 -7 -25 -11 -45 -16 -87 25 -157 103 -178 23 -6 47
-10 52 -8 5 2 -13 40 -40 86 -28 45 -46 82 -41 82 13 0 90 -99 90 -116 0 -30
18 -12 22 23 6 51 -27 113 -72 135 -44 21 -97 32 -103 21z"/>
<path d="M1797 1780 c-82 -16 -117 -55 -123 -136 -2 -30 0 -54 4 -54 4 0 16
16 27 36 19 35 75 97 82 90 2 -2 -17 -36 -42 -77 -25 -40 -45 -77 -45 -81 0
-13 73 2 99 21 54 38 70 84 58 161 -3 14 -5 31 -6 38 0 6 -4 11 -8 11 -5 -1
-25 -5 -46 -9z"/>
<path d="M1500 1720 c-51 -14 -90 -41 -106 -73 -18 -34 -21 -87 -6 -114 8 -13
12 -9 21 19 6 20 27 53 47 74 l35 39 -31 -65 c-17 -36 -35 -73 -41 -83 -15
-27 -4 -32 40 -18 38 11 90 59 92 84 0 7 2 21 4 32 4 22 -14 103 -24 109 -3 2
-17 0 -31 -4z"/>
<path d="M979 1678 c-17 -60 -17 -149 1 -184 29 -57 81 -92 157 -107 l32 -6
-20 52 c-11 29 -36 81 -55 116 -19 35 -33 65 -31 67 9 10 70 -69 101 -130 l34
-69 7 34 c28 126 -24 219 -140 250 -22 5 -48 12 -57 15 -13 4 -20 -5 -29 -38z"/>
<path d="M1870 1530 c-63 -17 -104 -66 -113 -131 -4 -33 6 -71 15 -59 2 3 17
24 33 48 25 38 73 82 89 82 3 0 -12 -23 -33 -51 -21 -28 -48 -68 -60 -90 l-22
-39 43 6 c56 8 97 32 126 74 19 29 22 45 20 100 l-3 65 -35 1 c-19 0 -46 -2
-60 -6z"/>
<path d="M589 1518 c-11 -78 -8 -126 13 -162 13 -22 39 -47 58 -57 37 -18 110
-32 110 -20 0 4 -24 43 -54 86 -30 44 -53 82 -50 84 7 8 65 -52 94 -97 23 -35
29 -40 34 -25 17 57 -20 140 -77 169 -27 15 -126 32 -128 22z"/>
<path d="M918 1453 c-27 -30 -46 -77 -42 -102 6 -32 42 -81 61 -81 13 0 15 11
10 73 -5 69 -5 70 8 35 7 -20 12 -48 11 -62 -5 -40 10 -40 29 0 21 46 13 82
-29 123 -31 30 -33 31 -48 14z"/>
<path d="M1587 1448 c-54 -39 -65 -114 -23 -156 15 -15 16 -12 16 30 0 48 7
78 19 78 3 0 4 -30 1 -66 -3 -36 -3 -67 1 -70 4 -2 21 12 38 31 43 49 40 88
-9 151 l-16 22 -27 -20z"/>
<path d="M1448 1287 c-51 -43 -60 -102 -23 -151 14 -19 15 -17 15 20 1 21 7
53 14 69 13 28 14 24 9 -42 -4 -44 -2 -73 4 -73 19 0 62 57 64 85 3 31 -20 83
-43 103 -11 8 -20 6 -40 -11z"/>
<path d="M980 1202 c-14 -51 -13 -62 10 -99 19 -31 50 -53 98 -68 22 -6 21 -3
-11 42 -19 26 -38 59 -42 73 -9 29 -6 27 61 -57 50 -65 60 -72 62 -50 1 6 5
27 8 45 12 60 -41 114 -138 140 -37 10 -38 10 -48 -26z"/>
<path d="M1782 1228 c-18 -6 -52 -28 -75 -49 l-42 -37 86 5 c81 5 167 -2 156
-13 -2 -3 -31 -7 -63 -9 -58 -5 -152 -16 -193 -24 -3 -1 11 -17 30 -37 87 -92
188 -90 288 6 28 27 51 53 51 57 0 11 -56 64 -90 86 -33 21 -106 28 -148 15z"/>
<path d="M616 1193 c-15 -8 -36 -23 -46 -33 -18 -18 -18 -20 21 -54 50 -46 93
-48 140 -8 l33 27 -30 6 c-16 4 -49 7 -74 8 -31 1 -41 4 -31 10 8 5 39 8 70 6
l55 -4 -30 24 c-16 14 -33 25 -39 25 -5 1 -17 3 -26 5 -8 1 -27 -4 -43 -12z"/>
<path d="M774 983 c-12 -2 -34 -17 -49 -33 l-29 -30 23 -24 c49 -52 102 -57
156 -14 26 20 26 22 9 29 -10 4 -40 8 -66 8 -28 1 -48 6 -48 12 0 8 20 10 60
7 51 -4 58 -2 47 10 -11 13 -72 44 -79 41 -2 -1 -13 -4 -24 -6z"/>
<path d="M1685 938 c-11 -7 -26 -18 -34 -25 -11 -12 -8 -14 20 -12 55 3 103
-1 96 -7 -3 -3 -34 -8 -68 -10 -35 -2 -64 -6 -67 -8 -2 -2 9 -16 25 -30 44
-41 111 -33 156 17 22 26 18 37 -23 65 -36 24 -74 28 -105 10z"/>
<path d="M500 605 c0 -8 2 -15 4 -15 2 0 12 -3 21 -7 15 -5 16 -3 6 15 -13 25
-31 29 -31 7z"/>
</g>
</svg>
